<svg width="18" height="18" viewBox="0 0 18 18" xmlns="http://www.w3.org/2000/svg">
<path d="M12.5768 8.08258H9.91742V5.42322C9.91742 5.17935 9.72 4.98193 9.47613 4.98193H8.5471C8.30322 4.98193 8.1058 5.17935 8.1058 5.42322V8.08258H5.42322C5.17935 8.08258 4.98193 8.28 4.98193 8.52387V9.4529C4.98193 9.69677 5.17935 9.89419 5.42322 9.89419H8.08258V12.5535C8.08258 12.7974 8.28 12.9948 8.52387 12.9948H9.4529C9.69677 12.9948 9.89419 12.7974 9.89419 12.5535V9.91742H12.5535C12.7974 9.91742 12.9948 9.72 12.9948 9.47613V8.5471C13.0181 8.29161 12.8206 8.08258 12.5768 8.08258Z"/>
<path d="M9 0C4.04129 0 0 4.04129 0 9C0 13.9587 4.04129 18 9 18C13.9587 18 18 13.9587 18 9C18 4.04129 13.9587 0 9 0ZM9 15.9445C5.16774 15.9445 2.05548 12.8323 2.05548 9C2.05548 5.16774 5.16774 2.05548 9 2.05548C12.8323 2.05548 15.9445 5.16774 15.9445 9C15.9445 12.8323 12.8323 15.9445 9 15.9445Z"/>
</svg>
